<svg xmlns="http://www.w3.org/2000/svg" xmlns:vectornator="http://vectornator.io" xmlns:xlink="http://www.w3.org/1999/xlink" fill-rule="evenodd" stroke-linecap="round" stroke-linejoin="round" clip-rule="evenodd" viewBox="0 0 1700 1375">
    <defs>
        <path id="a" d="M-816.667-976.597H2516.67V2356.74H-816.667V-976.597z"/>
        <path id="c" d="M1639.33 44.6792c-61.44 81.2388-125.87 105.4418-170.34 114.8698 6.6-7.543 14.3-14.143 18.7-28.6 2.36-8.014-1.1-14.143-10.84-10.372-24.99 10.057-49.5 12.573-87.06 19.801-189.2 35.987-191.71 49.969-286.63 236.813 101.52-59.714 182.13-71.185 275.32-68.516 194.07 0 287.1-116.441 282.85-253.1558-.3-10.6414-4.21-19.1507-10.37-19.1494-3.3 0-7.24 2.444-11.63 8.3094"/>
        <path id="f" d="M61.816 55.5179C57.5734 192.237 150.759 308.674 344.672 308.674c93.187-2.669 173.959 8.801 275.313 68.516-94.754-186.843-97.429-200.825-286.628-236.817-37.397-7.222-61.914-9.739-87.054-19.798-9.586-3.774-13.202 2.36-10.687 10.371 4.241 14.461 11.943 21.056 18.541 28.603-44.313-9.431-108.898-33.631-170.181-114.8698-4.4413-5.864-8.4239-8.3066-11.7466-8.308-6.2027 0-10.1067 8.508-10.4133 19.1467"/>
        <linearGradient id="e" x1="0" x2="1" y1="0" y2="0" gradientTransform="translate(1103.16 206.781) scale(558.309)" gradientUnits="userSpaceOnUse">
            <stop offset="0" stop-color="#a06a95"/>
            <stop offset="1" stop-color="#e26540"/>
        </linearGradient>
        <linearGradient id="h" x1="0" x2="1" y1="0" y2="0" gradientTransform="translate(61.6778 206.781) scale(558.308)" gradientUnits="userSpaceOnUse"><stop offset="0" stop-color="#1eaec7"/>
            <stop offset=".0415" stop-color="#1eaec7"/>
            <stop offset=".9944" stop-color="#8669ac"/>
            <stop offset="1" stop-color="#8669ac"/>
        </linearGradient>
    </defs>
    <g vectornator:layerName="g10">
        <g vectornator:mask="#Mask" vectornator:shadowAngle="1.5708" vectornator:shadowColor="#000000" vectornator:shadowOffset="10" vectornator:shadowOpacity="1" vectornator:shadowRadius="10">
            <clipPath id="b">
                <use fill="none" overflow="visible" xlink:href="#a"/>
            </clipPath>
            <g clip-path="url(#b)">
                <path fill="#a1a1a2" d="M1196.57 1168.92c0 7.69 2.67 14.29 7.86 19.79 5.18 5.5 11.62 8.17 19.16 8.17 7.54 0 13.98-2.67 19.17-8.17 5.34-5.5 7.86-12.1 7.86-19.79 0-7.54-2.52-13.98-7.86-19.33-5.19-5.49-11.63-8.17-19.17-8.17-7.54 0-13.98 2.68-19.16 8.17-5.19 5.35-7.86 11.79-7.86 19.33m-44.14 0c0-19.48 7.07-36.29 21.05-50.43s30.79-21.21 50.11-21.21c19.48 0 36.13 7.07 50.12 21.21 14.14 14.14 21.05 30.95 21.05 50.43 0 19.63-6.91 36.44-21.05 50.74-13.99 14.3-30.64 21.37-50.12 21.37-19.32 0-36.13-7.07-50.11-21.37-13.98-14.3-21.05-31.11-21.05-50.74m161.81 62.21v-123.8c0-1.88.62-3.45 1.88-4.71 1.26-1.26 2.83-1.88 4.72-1.88h16.02c2.83 0 4.87 1.41 6.13 4.08l6.28 15.08c10.37-15.08 22.94-22.62 37.23-22.62 6.13 0 11.63.79 16.5 2.04 4.71 1.42 8.17 3.3 10.21 5.5 2.05 2.36 2.2 4.72.63 7.23l-16.66 27.34c-1.88 3.29-4.39 4.24-7.54 3.13-2.82-1.1-5.49-1.72-8.32-1.72-5.18 0-9.58 1.88-12.88 5.5-3.46 3.61-5.18 8.32-5.18 13.98v70.85c0 4.4-2.52 6.59-7.54 6.59h-34.88c-1.58 0-3.14-.78-4.56-2.19-1.25-1.26-2.04-2.83-2.04-4.4m160.87-84.21c-3.3 3.46-5.03 7.7-5.03 12.73s1.73 9.27 5.03 12.57c3.45 3.45 7.85 5.18 13.04 5.18 5.18 0 9.58-1.57 13.03-4.87 3.46-3.46 5.19-7.7 5.19-12.88 0-5.34-1.73-9.58-5.19-12.88-3.45-3.3-7.85-4.88-13.03-4.88-5.19 0-9.59 1.58-13.04 5.03m-13.67 140.76c0 10.69 8.17 16.03 24.66 16.03 16.5 0 24.67-5.34 24.67-16.03 0-9.58-8.17-14.45-24.67-14.45-6.91 0-12.72 1.26-17.43 3.77-4.87 2.52-7.23 6.13-7.23 10.68m-52.31-62.36c0-8.02 2.19-15.09 6.75-21.37 4.55-6.28 9.11-10.52 13.83-12.88l6.75-3.46c-6.6-6.75-9.89-17.12-9.89-31.1 0-15.87 5.97-29.85 17.75-41.47 11.94-11.79 26.07-17.76 42.41-17.76h64.73c4.4 0 6.6 2.2 6.6 6.6v13.98c0 2.67-1.26 4.71-3.78 5.81l-19.95 7.23c.95.63 2.2 1.73 3.61 3.46 1.42 1.57 3.46 5.18 5.82 10.99 2.36 5.82 3.61 12.1 3.61 18.7 0 13.19-5.5 25.13-16.65 35.82-10.99 10.52-25.29 15.86-42.57 15.86h-24.67c-7.54 0-11.31 3.14-11.31 9.27 0 2.99 1.1 5.18 3.3 6.76 2.2 1.73 4.71 2.51 7.7 2.51h41c16.5 0 30.48 4.56 41.79 13.82 11.47 9.27 17.12 21.21 17.12 36.14 0 17.6-6.28 31.89-19.16 42.89-12.73 11.15-32.05 16.65-57.82 16.65-24.34 0-42.42-4.56-54.04-13.83-11.63-9.26-17.44-20.26-17.44-32.67 0-14.46 6.92-25.46 20.9-32.99v-.95c-1.88-.47-3.92-1.41-6.29-2.98-2.19-1.42-5.02-3.46-8.48-6.29-3.45-2.67-6.28-6.59-8.33-11.78-2.19-5.18-3.29-10.83-3.29-16.96m-338.24-16.34c0-8.96 3.31-16.65 9.59-23.25 6.44-6.44 13.98-9.74 22.62-9.74 8.95 0 16.65 3.3 23.09 9.74 6.6 6.6 9.74 14.29 9.74 23.25 0 8.64-3.14 16.18-9.74 22.47-6.44 6.44-14.14 9.58-23.09 9.58-8.64 0-16.18-3.14-22.62-9.58-6.28-6.29-9.59-13.83-9.59-22.47"/>
                <path fill="#8262aa" d="M1116.14 714.117L881.594 1232.39c-3.929 7.38-9.427 11-16.497 11h-9.74c-7.068 0-12.567-3.62-16.496-11L594.574 689.138l87.033-156.157c8.483 0 13.982 3.616 16.494 10.997l160.085 365.26h5.971l160.083-365.26c2.51-7.381 8.01-10.997 16.49-10.997l75.41 181.136z"/><path fill="#71548f" d="M696.374 915.515L594.573 689.138l87.035-156.158c8.482 0 13.981 3.616 16.493 10.998l61.112 139.506c.313 3.3.628 6.44.944 9.742 7.068 82.946-17.752 157.72-63.783 222.289m419.766-201.399l-89.23 197.156c-41.785-62.365-61.113-133.686-61.113-213.025 0-7.381.156-14.763.471-22.147l57.972-132.122c2.51-7.382 8.01-10.998 16.49-10.998l75.41 181.136z"/><path fill="#f16937" d="M1091.54 949.298c-68.81-68.811-100.229-152.386-100.229-251.05 0-98.496 31.419-182.541 100.229-251.98 68.81-69.281 152.23-104 250.1-104 91.27 0 170.3 30.632 236.75 91.747 9.89 9.265 10.21 18.38 1.1 27.645l-76.35 79.808c-8.48 7.854-16.66 7.854-24.51 0-37.24-33.464-81.22-50.273-132.12-50.273-54.83 0-100.55 19.955-136.99 59.701-36.6 39.742-52.63 87.504-52.63 143.43 0 55.294 16.18 102.424 53.1 141.543 36.92 39.12 82.63 58.598 137.46 58.598 50.9 0 94.58-15.712 131.18-47.287 9.11-7.857 17.59-7.538 25.45.941l76.35 81.85c8.48 8.643 8.17 17.437-.94 26.708-65.36 63.781-144.54 95.671-237.85 95.671-97.87 0-181.29-34.4-250.1-103.052"/><path fill="#0dadc7" d="M294.201 524.344v376.564h92.689c54.197 0 99.125-19.635 134.947-59.227 35.661-39.432 53.569-88.131 53.569-146.101 0-57.343-17.908-105.884-53.569-145.312-35.822-39.432-80.75-59.231-134.947-59.231h-92.689v33.307zM143.387 1031.45V361.589c0-5.499 1.727-10.056 5.342-13.665 3.456-3.774 7.54-5.656 12.097-5.656h235.803c96.772 7.068 168.881 35.346 235.332 104.47 66.297 69.282 93.16 147.672 101.644 248.842 8.169 97.089-30.95 181.448-97.244 250.888-66.454 69.592-146.415 104.312-239.732 104.312H160.826c-4.557 0-8.641-1.89-12.097-5.65-3.615-3.62-5.342-8.18-5.342-13.68"/>
            </g>
        </g>
        <g vectornator:mask="#Mask_2" vectornator:shadowAngle="1.5708" vectornator:shadowColor="#000000" vectornator:shadowOffset="10" vectornator:shadowOpacity="1" vectornator:shadowRadius="10">
            <clipPath id="d">
                <use fill="none" overflow="visible" xlink:href="#c"/>
            </clipPath>
            <g clip-path="url(#d)">
                <path fill="url(#e)" d="M1639.33 44.6792c-61.44 81.2388-125.87 105.4418-170.34 114.8698 6.6-7.543 14.3-14.143 18.7-28.6 2.36-8.014-1.1-14.143-10.84-10.372-24.99 10.057-49.5 12.573-87.06 19.801-189.2 35.987-191.71 49.969-286.63 236.813 101.52-59.714 182.13-71.185 275.32-68.516 194.07 0 287.1-116.441 282.85-253.1558-.3-10.6414-4.21-19.1507-10.37-19.1494-3.3 0-7.24 2.444-11.63 8.3094"/>
            </g>
        </g>
        <g vectornator:mask="#Mask_3" vectornator:shadowAngle="1.5708" vectornator:shadowColor="#000000" vectornator:shadowOffset="10" vectornator:shadowOpacity="1" vectornator:shadowRadius="10">
            <clipPath id="g">
                <use fill="none" overflow="visible" xlink:href="#f"/>
            </clipPath>
            <g clip-path="url(#g)">
                <path fill="url(#h)" d="M61.816 55.5179C57.5734 192.237 150.759 308.674 344.672 308.674c93.187-2.669 173.959 8.801 275.313 68.516-94.754-186.843-97.429-200.825-286.628-236.817-37.397-7.222-61.914-9.739-87.054-19.798-9.586-3.774-13.202 2.36-10.687 10.371 4.241 14.461 11.943 21.056 18.541 28.603-44.313-9.431-108.898-33.631-170.181-114.8698-4.4413-5.864-8.4239-8.3066-11.7466-8.308-6.2027 0-10.1067 8.508-10.4133 19.1467"/>
            </g>
        </g>
    </g>
</svg>
